<?xml version="1.0" standalone="no"?>
<!DOCTYPE svg PUBLIC "-//W3C//DTD SVG 20010904//EN"
 "http://www.w3.org/TR/2001/REC-SVG-20010904/DTD/svg10.dtd">
<svg version="1.0" xmlns="http://www.w3.org/2000/svg"
 width="177.000000pt" height="177.000000pt" viewBox="0 0 177.000000 177.000000"
 preserveAspectRatio="xMidYMid meet">

<g transform="translate(0.000000,177.000000) scale(0.100000,-0.100000)"
fill="#000000" stroke="none">
<path d="M750 1674 c-12 -30 -10 -104 2 -104 4 0 7 -3 7 -7 -4 -22 3 -32 19
-30 14 1 19 10 20 36 2 50 36 83 79 75 38 -7 45 12 15 39 -16 15 -20 15 -40 1
-12 -8 -22 -23 -22 -32 0 -13 -3 -12 -16 6 -8 12 -20 20 -25 16 -5 -3 -8 0 -7
7 6 25 -22 19 -32 -7z"/>
<path d="M1087 1549 c7 -7 15 -10 18 -7 3 3 -2 9 -12 12 -14 6 -15 5 -6 -5z"/>
<path d="M522 1368 c-15 -15 -14 -63 2 -108 l13 -35 7 50 c4 28 9 58 10 67 5
24 -17 41 -32 26z"/>
<path d="M750 1215 c0 -8 2 -15 4 -15 2 0 6 7 10 15 3 8 1 15 -4 15 -6 0 -10
-7 -10 -15z"/>
<path d="M387 1213 c-3 -5 -1 -17 4 -28 4 -11 8 -15 8 -8 1 6 11 15 24 19 21
7 21 7 2 15 -27 10 -33 10 -38 2z"/>
<path d="M400 1144 c0 -5 17 -26 37 -45 20 -18 31 -26 24 -17 -11 15 -8 17 21
20 27 2 34 8 36 28 2 22 1 23 -8 8 -8 -12 -24 -18 -50 -18 -27 0 -42 6 -49 18
-6 9 -11 12 -11 6z"/>
<path d="M1335 1128 c-4 -13 -6 -31 -5 -42 1 -13 -2 -16 -12 -10 -11 6 -11 5
0 -8 10 -13 10 -17 -3 -22 -8 -3 -14 -9 -14 -13 1 -4 -2 -19 -8 -32 -6 -16
-12 -20 -17 -13 -10 17 -26 5 -26 -20 0 -15 -5 -19 -18 -16 -10 3 -24 -2 -31
-9 -7 -8 -24 -13 -37 -10 -14 2 -25 -2 -29 -11 -4 -12 -9 -12 -17 -4 -8 8 -15
9 -25 1 -8 -8 -13 -8 -13 -1 0 5 -9 8 -20 5 -14 -4 -20 0 -20 12 0 14 -3 15
-15 5 -12 -10 -15 -9 -15 6 -1 18 -1 18 -15 0 -8 -11 -15 -15 -15 -8 0 6 -20
17 -45 23 -25 6 -45 16 -45 22 0 6 -16 7 -41 4 -29 -4 -42 -1 -46 9 -3 8 -10
14 -16 14 -19 0 -106 45 -107 55 0 16 -110 33 -146 23 -34 -9 -69 -42 -60 -56
3 -5 -2 -9 -12 -9 -26 1 -72 -24 -72 -40 0 -8 -4 -12 -9 -9 -18 11 -29 -151
-12 -179 3 -5 6 -14 7 -20 3 -25 17 -55 26 -55 5 0 6 -5 2 -12 -4 -6 1 -17 11
-25 11 -7 14 -13 7 -13 -6 0 -20 -10 -32 -22 -11 -12 -20 -18 -20 -14 0 5 -20
-8 -45 -29 -25 -20 -60 -41 -79 -46 -27 -7 -35 -16 -44 -48 -7 -21 -12 -48
-12 -60 0 -21 46 -101 59 -101 6 0 66 -51 103 -86 9 -9 21 -13 27 -10 5 4 12
2 16 -4 3 -5 24 -10 46 -10 22 0 38 4 35 8 -3 5 1 9 9 9 8 0 12 -4 9 -9 -3 -4
-1 -8 5 -8 21 0 15 37 -11 70 -15 20 -33 58 -39 85 -15 65 -17 166 -4 184 7
11 7 13 -3 7 -18 -11 -15 12 6 34 14 15 32 20 73 20 95 0 129 -4 129 -15 0 -5
5 -3 10 5 5 8 10 10 10 5 0 -7 39 -11 100 -11 55 0 100 4 100 8 0 5 4 7 8 4 4
-2 14 -1 22 4 8 5 22 4 33 -2 13 -7 17 -7 13 0 -4 6 1 10 11 9 10 0 40 5 66
12 39 11 50 11 64 0 9 -8 18 -10 20 -4 3 10 132 11 208 1 22 -3 57 -8 77 -10
20 -2 41 -7 47 -10 15 -10 43 5 37 20 -3 8 0 11 9 8 12 -5 13 11 9 92 -3 54
-10 104 -16 111 -6 7 -8 22 -5 33 3 11 1 20 -4 20 -5 0 -8 3 -7 8 1 4 -4 21
-11 37 -7 17 -14 37 -16 45 -11 50 -62 123 -78 113 -6 -4 -8 0 -4 10 3 10 3
17 -2 17 -5 0 -12 -10 -16 -22z"/>
<path d="M1436 363 c-6 -14 -5 -15 5 -6 7 7 10 15 7 18 -3 3 -9 -2 -12 -12z"/>
<path d="M1366 272 c-3 -6 -13 -9 -21 -5 -17 6 -19 -5 -6 -25 6 -11 10 -10 16
5 7 17 7 17 14 -1 4 -11 10 -15 13 -10 8 14 -7 50 -16 36z"/>
<path d="M1433 255 c-3 -9 -3 -18 -1 -21 3 -3 8 4 11 16 6 23 -1 27 -10 5z"/>
<path d="M223 237 c-3 -6 -1 -7 5 -3 5 3 12 1 14 -6 3 -8 6 -7 10 3 7 17 -19
22 -29 6z"/>
<path d="M315 240 c-3 -6 1 -7 9 -4 18 7 21 14 7 14 -6 0 -13 -4 -16 -10z"/>
<path d="M608 233 c12 -2 30 -2 40 0 9 3 -1 5 -23 4 -22 0 -30 -2 -17 -4z"/>
<path d="M1153 223 c15 -2 37 -2 50 0 12 2 0 4 -28 4 -27 0 -38 -2 -22 -4z"/>
</g>
</svg>
